HIERARCHY
ROOT Bone
{
	OFFSET 0.000000 0.000000 0.000000
	CHANNELS 6 Xposition Yposition Zposition Xrotation Yrotation Zrotation
	End Site
	{
		OFFSET 0.000000 0.000000 0.413720
	}
}
MOTION
Frames: 101
Frame Time: 0.040000
-0.000000 0.000000 0.000000 -0.000000 0.000000 0.000000 
0.000000 -0.000600 0.000000 -0.000000 0.000000 0.000000 
0.000000 -0.002404 0.000000 -0.000000 0.000000 0.000000 
0.000000 -0.005415 0.000000 -0.000000 0.000000 0.000000 
0.000000 -0.009638 0.000000 -0.000000 0.000000 0.000000 
0.000000 -0.015075 0.000000 -0.000000 0.000000 0.000000 
0.000000 -0.021730 0.000000 -0.000000 0.000000 0.000000 
0.000000 -0.029605 0.000000 -0.000000 0.000000 0.000000 
0.000000 -0.038704 0.000000 -0.000000 0.000000 0.000000 
0.000000 -0.049027 0.000000 -0.000000 0.000000 0.000000 
0.000000 -0.060578 0.000000 -0.000000 0.000000 0.000000 
0.000000 -0.073356 0.000000 -0.000000 0.000000 0.000000 
0.000000 -0.087363 0.000000 -0.000000 0.000000 0.000000 
0.000000 -0.102600 0.000000 -0.000000 0.000000 0.000000 
0.000000 -0.119067 0.000000 -0.000000 0.000000 0.000000 
0.000000 -0.136762 0.000000 -0.000000 0.000000 0.000000 
0.000000 -0.155685 0.000000 -0.000000 0.000000 0.000000 
0.000000 -0.175835 0.000000 -0.000000 0.000000 0.000000 
0.000000 -0.197210 0.000000 -0.000000 0.000000 0.000000 
0.000000 -0.219807 0.000000 -0.000000 0.000000 0.000000 
0.000000 -0.243623 0.000000 -0.000000 0.000000 0.000000 
0.000000 -0.268654 0.000000 -0.000000 0.000000 0.000000 
0.000000 -0.294897 0.000000 -0.000000 0.000000 0.000000 
0.000000 -0.322346 0.000000 -0.000000 0.000000 0.000000 
0.000000 -0.350996 0.000000 -0.000000 0.000000 0.000000 
0.000000 -0.380840 0.000000 -0.000000 0.000000 0.000000 
0.000000 -0.411873 0.000000 -0.000000 0.000000 0.000000 
0.000000 -0.444086 0.000000 -0.000000 0.000000 0.000000 
0.000000 -0.477471 0.000000 -0.000000 0.000000 0.000000 
0.000000 -0.512019 0.000000 -0.000000 0.000000 0.000000 
0.000000 -0.547721 0.000000 -0.000000 0.000000 0.000000 
0.000000 -0.584566 0.000000 -0.000000 0.000000 0.000000 
0.000000 -0.622543 0.000000 -0.000000 0.000000 0.000000 
0.000000 -0.661640 0.000000 -0.000000 0.000000 0.000000 
0.000000 -0.701843 0.000000 -0.000000 0.000000 0.000000 
0.000000 -0.743140 0.000000 -0.000000 0.000000 0.000000 
0.000000 -0.785517 0.000000 -0.000000 0.000000 0.000000 
0.000000 -0.828956 0.000000 -0.000000 0.000000 0.000000 
0.000000 -0.873443 0.000000 -0.000000 0.000000 0.000000 
0.000000 -0.918961 0.000000 -0.000000 0.000000 0.000000 
0.000000 -0.965491 0.000000 -0.000000 0.000000 0.000000 
0.000000 -1.013015 0.000000 -0.000000 0.000000 0.000000 
0.000000 -1.061513 0.000000 -0.000000 0.000000 0.000000 
0.000000 -1.110964 0.000000 -0.000000 0.000000 0.000000 
0.000000 -1.161348 0.000000 -0.000000 0.000000 0.000000 
0.000000 -1.212642 0.000000 -0.000000 0.000000 0.000000 
0.000000 -1.264823 0.000000 -0.000000 0.000000 0.000000 
0.000000 -1.317867 0.000000 -0.000000 0.000000 0.000000 
0.000000 -1.371749 0.000000 -0.000000 0.000000 0.000000 
0.000000 -1.426444 0.000000 -0.000000 0.000000 0.000000 
0.000000 -1.481924 0.000000 -0.000000 0.000000 0.000000 
0.000000 -1.538162 0.000000 -0.000000 0.000000 0.000000 
0.000000 -1.595131 0.000000 -0.000000 0.000000 0.000000 
0.000000 -1.652801 0.000000 -0.000000 0.000000 0.000000 
0.000000 -1.711143 0.000000 -0.000000 0.000000 0.000000 
0.000000 -1.770125 0.000000 -0.000000 0.000000 0.000000 
0.000000 -1.829718 0.000000 -0.000000 0.000000 0.000000 
0.000000 -1.889888 0.000000 -0.000000 0.000000 0.000000 
0.000000 -1.950603 0.000000 -0.000000 0.000000 0.000000 
0.000000 -2.011830 0.000000 -0.000000 0.000000 0.000000 
0.000000 -2.073535 0.000000 -0.000000 0.000000 0.000000 
0.000000 -2.135684 0.000000 -0.000000 0.000000 0.000000 
0.000000 -2.198241 0.000000 -0.000000 0.000000 0.000000 
0.000000 -2.261172 0.000000 -0.000000 0.000000 0.000000 
0.000000 -2.324439 0.000000 -0.000000 0.000000 0.000000 
0.000000 -2.388007 0.000000 -0.000000 0.000000 0.000000 
0.000000 -2.451840 0.000000 -0.000000 0.000000 0.000000 
0.000000 -2.515899 0.000000 -0.000000 0.000000 0.000000 
0.000000 -2.580148 0.000000 -0.000000 0.000000 0.000000 
0.000000 -2.644548 0.000000 -0.000000 0.000000 0.000000 
0.000000 -2.709063 0.000000 -0.000000 0.000000 0.000000 
0.000000 -2.773654 0.000000 -0.000000 0.000000 0.000000 
0.000000 -2.838283 0.000000 -0.000000 0.000000 0.000000 
-0.000000 -2.902913 0.000000 -0.000000 0.000000 0.000000 
-0.000000 -2.967504 0.000000 -0.000000 0.000000 0.000000 
-0.000000 -3.032018 0.000000 -0.000000 0.000000 0.000000 
-0.000000 -3.096419 0.000000 -0.000000 0.000000 0.000000 
-0.000000 -3.160668 0.000000 -0.000000 0.000000 0.000000 
-0.000000 -3.224727 0.000000 -0.000000 0.000000 0.000000 
-0.000000 -3.288559 0.000000 -0.000000 0.000000 0.000000 
-0.000000 -3.352128 0.000000 -0.000000 0.000000 0.000000 
-0.000000 -3.415395 0.000000 -0.000000 0.000000 0.000000 
-0.000000 -3.478326 0.000000 -0.000000 0.000000 0.000000 
-0.000000 -3.540883 0.000000 -0.000000 0.000000 0.000000 
-0.000000 -3.603032 0.000000 -0.000000 0.000000 0.000000 
-0.000000 -3.664737 0.000000 -0.000000 0.000000 0.000000 
-0.000000 -3.725964 0.000000 -0.000000 0.000000 0.000000 
-0.000000 -3.786679 0.000000 -0.000000 0.000000 0.000000 
-0.000000 -3.846849 0.000000 -0.000000 0.000000 0.000000 
-0.000000 -3.906441 0.000000 -0.000000 0.000000 0.000000 
-0.000000 -3.965424 0.000000 -0.000000 0.000000 0.000000 
-0.000000 -4.023766 0.000000 -0.000000 0.000000 0.000000 
-0.000000 -4.081436 0.000000 -0.000000 0.000000 0.000000 
-0.000000 -4.138404 0.000000 -0.000000 0.000000 0.000000 
-0.000000 -4.194643 0.000000 -0.000000 0.000000 0.000000 
-0.000000 -4.250123 0.000000 -0.000000 0.000000 0.000000 
-0.000000 -4.304817 0.000000 -0.000000 0.000000 0.000000 
-0.000000 -4.358699 0.000000 -0.000000 0.000000 0.000000 
-0.000000 -4.411744 0.000000 -0.000000 0.000000 0.000000 
-0.000000 -4.463924 0.000000 -0.000000 0.000000 0.000000 
-0.000000 -4.515218 0.000000 -0.000000 0.000000 0.000000 
